# xmcd
#
# Track frame offsets: 
#        150
#        21760
#        40416
#        80474
#        100041
#        124535
#        141930
#        158279
#        184096
#        204579
#        224578
#        251268
#        271123
#        292775
#        311698
#        333846
#
# Disc length: 4793 seconds
#
# Revision: 1
# Processed by: cddbd v1.5.2PL0 Copyright (c) Steve Scherf et al.
# Submitted via: ExactAudioCopy v1.1
#
DISCID=d412b710
DTITLE=Various Artist - Trail Of The Wolf - vol.02 - Various Of The B
DTITLE=lues  CD2
DYEAR=2017
DGENRE=Blues
TTITLE0=Joe Beard and Ronnie Earl - Please Don't Light The Flame
TTITLE1=Keb' Mo - A Letter to Tracy
TTITLE2=Jimmy Thackery  and The Drivers - Blind Man In The Night
TTITLE3=David Gogo - Erase Any Trace
TTITLE4=Vargas Blues Band - Buenos Aires Blues
TTITLE5=Lynyrd Skynyrd - Saturday Night Special
TTITLE6=Kara Grainger - Shut Down
TTITLE7=Dave Steffen Band - Dawn
TTITLE8=Tab Benoit - Long Lonely Bayou
TTITLE9=John Scofield - The Old Ship Of Zion
TTITLE10=Livin' Blues Xperience - The Best Thing I Can Do
TTITLE11=Blues Cousins - Love Matters
TTITLE12=Eric Burdon - Feeling Blue
TTITLE13=Jonny Lang and The Big Bang - Sugarman
TTITLE14=Alex Schultz - Who Will the Next Fool Be
TTITLE15=Bernard Allison - Serious (After Hours)
EXTD=
EXTT0=
EXTT1=
EXTT2=
EXTT3=
EXTT4=
EXTT5=
EXTT6=
EXTT7=
EXTT8=
EXTT9=
EXTT10=
EXTT11=
EXTT12=
EXTT13=
EXTT14=
EXTT15=
PLAYORDER=
